<?xml version="1.0" encoding="utf-8"?>
<!-- Generator: Adobe Illustrator 25.2.3, SVG Export Plug-In . SVG Version: 6.00 Build 0)  -->
<svg version="1.1" id="Capa_1" xmlns="http://www.w3.org/2000/svg" xmlns:xlink="http://www.w3.org/1999/xlink" x="0px" y="0px"
	 viewBox="0 0 64 80" style="enable-background:new 0 0 64 80;" xml:space="preserve">
<g>
	<path d="M60,9h1c0.6,0,1-0.4,1-1V4c0-0.6-0.4-1-1-1h-4c-0.6,0-1,0.4-1,1v1H36V3c0-0.6-0.4-1-1-1h-6c-0.6,0-1,0.4-1,1v2H8V4
		c0-0.6-0.4-1-1-1H3C2.4,3,2,3.4,2,4v4c0,0.6,0.4,1,1,1h1v47H3c-0.6,0-1,0.4-1,1v4c0,0.6,0.4,1,1,1h4c0.6,0,1-0.4,1-1v-1h20v2
		c0,0.6,0.4,1,1,1h6c0.6,0,1-0.4,1-1v-2h20v1c0,0.6,0.4,1,1,1h4c0.6,0,1-0.4,1-1v-4c0-0.6-0.4-1-1-1h-1V9z M56,7v1c0,0.6,0.4,1,1,1
		h1v13.3c-2.9-7-8.5-12.5-15.5-15.3H56z M30,6.2V4h4v4h-4V6.2z M4,5h2v2H4V5z M6,9h1c0.6,0,1-0.4,1-1V7h13.5
		C14.5,9.8,8.9,15.3,6,22.3V9z M6,60H4v-2h2V60z M7,56H6V42.7c2.9,7,8.5,12.5,15.5,15.3H8v-1C8,56.4,7.6,56,7,56z M29,55
		c-0.6,0-1,0.4-1,1v1.7C14.1,55.8,4.3,43,6.2,29.1C7.8,17.8,16.7,8.8,28,7.3V9c0,0.6,0.4,1,1,1h6c0.6,0,1-0.4,1-1V7.3
		c12.6,1.8,21.9,12.5,22,25.2C58,41,53.7,49,46.5,53.6l-4-10.8c-0.7-2.2-0.2-4.5,1.5-6.1c0.2-0.2,0.3-0.5,0.3-0.8
		c0-0.3-0.2-0.5-0.4-0.7l-17-13.6c-0.4-1.2-0.2-2.5,0.5-3.5c1.1-1.4,3.6-1.9,7.3-1.5s6.3-0.1,7.7-1.7c0.8-0.9,1.2-2.2,1-3.4l-2,0.4
		c0.1,0.6-0.1,1.2-0.5,1.6c-0.9,1-3,1.4-6,1c-4.5-0.5-7.6,0.2-9.1,2.2c-1.1,1.6-1.4,3.6-0.8,5.4l-4.3,21.5c-0.1,0.5,0.2,1.1,0.8,1.2
		c0,0,0.1,0,0.1,0c2.3,0.1,4.4,1.5,5.2,3.7L29,55L29,55z M28.6,47.9c-1-2.5-3.2-4.3-5.8-4.8l3.5-17.2l3.5,9.7
		c-1.3,0.9-1.8,2.6-1.3,4.2c0.3,0.9,1,1.6,1.9,2c0.5,0.2,1,0.3,1.5,0.3c2,0,3.6-1.6,3.6-3.6c0-2-1.6-3.6-3.6-3.6c-0.1,0-0.2,0-0.3,0
		l-3.5-9.7l13.8,11c-1.6,2.1-2.1,4.8-1.2,7.3l1.2,3.2l-12.1,4.4L28.6,47.9z M31.4,37c0.2-0.1,0.4-0.1,0.6-0.1c0.9,0,1.6,0.7,1.6,1.6
		c0,0.2-0.1,0.5-0.1,0.7c-0.2,0.4-0.5,0.7-0.9,0.8c-0.4,0.2-0.8,0.2-1.2,0c-0.4-0.2-0.7-0.6-0.8-1.1C30.1,38.2,30.6,37.3,31.4,37z
		 M34,58.8V61h-4v-4h4V58.8z M40.7,56.6l-0.3,0.1c-0.6,0.2-1.2,0.4-1.8,0.5l-0.4,0.1c-0.7,0.2-1.3,0.3-2,0.4H36V56c0-0.6-0.4-1-1-1
		h-3.8l-0.8-2.1l12.1-4.4l2.2,6.2l-0.2,0.1c-0.6,0.3-1.2,0.6-1.8,0.9l-0.2,0.1l-0.1,0.1C41.9,56.1,41.3,56.3,40.7,56.6L40.7,56.6z
		 M56,57v1H42.5l0,0c0.6-0.2,1.2-0.5,1.8-0.8l0.5-0.2c0.6-0.3,1.2-0.6,1.8-1l0,0c0.6-0.4,1.2-0.8,1.8-1.1l0.5-0.4
		c0.4-0.3,0.8-0.6,1.1-0.9l0.6-0.5c0.4-0.3,0.7-0.6,1.1-1l0.5-0.4c0.5-0.5,0.9-1,1.4-1.5l0.1-0.2c0.4-0.5,0.8-0.9,1.1-1.4
		c0.1-0.2,0.2-0.3,0.4-0.5c0.3-0.4,0.5-0.8,0.8-1.2l0.4-0.6c0.2-0.4,0.5-0.8,0.7-1.3c0.1-0.2,0.2-0.3,0.3-0.5
		c0.3-0.6,0.6-1.2,0.8-1.8l0,0V56H57C56.4,56,56,56.4,56,57z M60,60h-2v-2h2V60z M58,7V5h2v2H58z"/>
</g>
</svg>
