<?xml version="1.0" encoding="utf-8"?>
<!-- Generator: Adobe Illustrator 25.2.3, SVG Export Plug-In . SVG Version: 6.00 Build 0)  -->
<svg version="1.1" id="Capa_1" xmlns="http://www.w3.org/2000/svg" xmlns:xlink="http://www.w3.org/1999/xlink" x="0px" y="0px"
	 viewBox="0 0 66 82.5" style="enable-background:new 0 0 66 82.5;" xml:space="preserve">
<style type="text/css">
	.st0{fill:#000100;}
</style>
<g>
	<path class="st0" d="M55.9,46.6c0.2-0.1,0.4-0.4,0.4-0.6V20c0-0.3-0.1-0.5-0.4-0.7l-22.5-13c-0.2-0.1-0.6-0.1-0.8,0l-22.5,13
		c-0.2,0.1-0.4,0.4-0.4,0.7v26c0,0.3,0.1,0.5,0.4,0.6l22.5,13c0.2,0.1,0.5,0.1,0.8,0L55.9,46.6z M11.3,21.3l6.3,3.7
		c-1.3,2.5-2,5.2-2,8v0.1h1.5c0-2.5,0.6-5,1.8-7.3l13.3,7.7v24.2l-21-12.1L11.3,21.3L11.3,21.3z M47.6,23.7c-1.5-2.4-3.6-4.4-6-5.8
		l-0.7,1.3c2.2,1.3,4.1,3.1,5.5,5.2l-12.6,7.3V8.3L54,20L47.6,23.7z M12,20L32.3,8.3v7.3c-2.8,0.1-5.6,0.9-8,2.3l0.8,1.3
		c2.2-1.3,4.7-2,7.2-2.1v14.5L12,20z M33.8,50.3c2.8-0.1,5.5-0.9,7.9-2.3l-0.8-1.3c-2.2,1.3-4.7,2-7.2,2.1V33.4l21-12.1v24.2
		l-21,12.1L33.8,50.3L33.8,50.3z"/>
	<path class="st0" d="M2.1,28.2L0.6,28c-0.3,1.7-0.4,3.4-0.4,5.1v0.1L1.8,33C1.8,31.4,1.9,29.8,2.1,28.2z"/>
	<path class="st0" d="M0.7,38.2c0.3,1.7,0.7,3.4,1.2,5l1.4-0.5c-0.5-1.5-0.9-3.2-1.1-4.8L0.7,38.2z"/>
	<path class="st0" d="M5.1,18.9l-1.3-0.7c-0.8,1.5-1.4,3.1-2,4.8l1.4,0.5C3.8,21.9,4.4,20.3,5.1,18.9z"/>
	<path class="st0" d="M28,2.1l-0.2-1.5c-1.7,0.3-3.4,0.7-5,1.2l0.5,1.4C24.8,2.8,26.4,2.4,28,2.1z"/>
	<path class="st0" d="M47.8,3.8c-1.5-0.8-3.1-1.4-4.8-2l-0.5,1.4c1.6,0.5,3.1,1.1,4.5,1.9L47.8,3.8z"/>
	<path class="st0" d="M18.7,5.2L18,3.9c-1.5,0.8-3,1.7-4.4,2.7l0.9,1.2C15.9,6.8,17.3,5.9,18.7,5.2z"/>
	<path class="st0" d="M65.3,27.8c-0.3-1.7-0.7-3.4-1.2-5l-1.4,0.5c0.5,1.5,0.9,3.2,1.2,4.8L65.3,27.8z"/>
	<path class="st0" d="M56.1,9.8c-1.2-1.2-2.5-2.3-3.9-3.3l-0.9,1.2c1.3,1,2.6,2,3.7,3.2L56.1,9.8z"/>
	<path class="st0" d="M37.8,2.1L38,0.6c-1.6-0.3-3.3-0.4-5-0.4l0,0h-0.1L33,1.8C34.6,1.8,36.2,1.9,37.8,2.1z"/>
	<path class="st0" d="M3.8,47.9c0.8,1.5,1.7,3,2.7,4.4l1.2-0.9c-1-1.3-1.8-2.7-2.6-4.2L3.8,47.9z"/>
	<path class="st0" d="M10.8,11l-1-1.1c-1.2,1.2-2.3,2.5-3.3,3.9l1.2,0.9C8.6,13.4,9.7,12.1,10.8,11z"/>
	<path class="st0" d="M37.9,63.9l0.2,1.5c1.7-0.3,3.4-0.7,5-1.2l-0.5-1.4C41.1,63.2,39.5,63.6,37.9,63.9z"/>
	<path class="st0" d="M55.1,55.1l1.1,1.1c1.2-1.2,2.3-2.5,3.3-3.9l-1.2-0.9C57.3,52.7,56.3,53.9,55.1,55.1z"/>
	<path class="st0" d="M47.2,60.8l0.7,1.3c1.5-0.8,3-1.7,4.4-2.7l-0.9-1.2C50.1,59.2,48.7,60.1,47.2,60.8z"/>
	<path class="st0" d="M59.4,13.7l-1.2,0.9c1,1.3,1.8,2.7,2.6,4.2l1.3-0.7C61.3,16.5,60.4,15,59.4,13.7z"/>
	<path class="st0" d="M18.2,62.2c1.5,0.8,3.1,1.4,4.8,2l0.5-1.4c-1.6-0.5-3.1-1.1-4.5-1.9L18.2,62.2z"/>
	<path class="st0" d="M60.9,47.2l1.3,0.7c0.8-1.5,1.4-3.1,2-4.7l-1.4-0.5C62.2,44.2,61.6,45.7,60.9,47.2z"/>
	<path class="st0" d="M9.9,56.2c1.2,1.2,2.5,2.3,3.9,3.3l0.9-1.2c-1.3-1-2.6-2-3.7-3.2L9.9,56.2z"/>
	<path class="st0" d="M28.1,63.9l-0.2,1.5c1.7,0.3,3.4,0.3,5,0.4H33v-1.5C31.4,64.3,29.7,64.1,28.1,63.9z"/>
	<path class="st0" d="M64.3,32.9L64.3,32.9c0,1.7-0.1,3.4-0.4,5l1.5,0.2c0.3-1.7,0.4-3.4,0.4-5.1v-0.1
		C65.8,32.9,64.3,32.9,64.3,32.9z"/>
	<path class="st0" d="M48.9,33c0,2.8-0.7,5.5-2.1,7.9l1.3,0.8c1.5-2.6,2.3-5.6,2.3-8.7H50H48.9z"/>
	<path class="st0" d="M19.3,41L18,41.7c1.5,2.6,3.7,4.8,6.4,6.3l0.8-1.3C22.7,45.4,20.7,43.4,19.3,41z"/>
</g>
</svg>
