<?xml version="1.0" encoding="utf-8"?>
<!-- Generator: Adobe Illustrator 25.2.3, SVG Export Plug-In . SVG Version: 6.00 Build 0)  -->
<svg version="1.1" id="Capa_1" xmlns="http://www.w3.org/2000/svg" xmlns:xlink="http://www.w3.org/1999/xlink" x="0px" y="0px"
	 viewBox="0 0 64 80" style="enable-background:new 0 0 64 80;" xml:space="preserve">
<g>
	<path d="M61,28h-2V14.8c1.2-0.4,2-1.5,2-2.8c0-1.7-1.3-3-3-3s-3,1.3-3,3c0,1.3,0.8,2.4,2,2.8v7C54.3,15,49,9.7,42.2,7h7
		c0.4,1.2,1.5,2,2.8,2c1.7,0,3-1.3,3-3s-1.3-3-3-3c-1.3,0-2.4,0.8-2.8,2H36V3c0-0.6-0.4-1-1-1h-6c-0.6,0-1,0.4-1,1v2H14.8
		c-0.4-1.2-1.5-2-2.8-2c-1.7,0-3,1.3-3,3s1.3,3,3,3c1.3,0,2.4-0.8,2.8-2h7C15,9.7,9.7,15,7,21.8v-7c1.2-0.4,2-1.5,2-2.8
		c0-1.7-1.3-3-3-3s-3,1.3-3,3c0,1.3,0.8,2.4,2,2.8V28H3c-0.6,0-1,0.4-1,1v6c0,0.6,0.4,1,1,1h2v13.2c-1.2,0.4-2,1.5-2,2.8
		c0,1.7,1.3,3,3,3s3-1.3,3-3c0-1.3-0.8-2.4-2-2.8v-7C9.7,49,15,54.3,21.8,57h-7c-0.4-1.2-1.5-2-2.8-2c-1.7,0-3,1.3-3,3s1.3,3,3,3
		c1.3,0,2.4-0.8,2.8-2H28v2c0,0.6,0.4,1,1,1h6c0.6,0,1-0.4,1-1v-2h13.2c0.4,1.2,1.5,2,2.8,2c1.7,0,3-1.3,3-3s-1.3-3-3-3
		c-1.3,0-2.4,0.8-2.8,2h-7c6.7-2.7,12-8,14.8-14.8v7c-1.2,0.4-2,1.5-2,2.8c0,1.7,1.3,3,3,3s3-1.3,3-3c0-1.3-0.8-2.4-2-2.8V36h2
		c0.6,0,1-0.4,1-1v-6C62,28.4,61.6,28,61,28z M58,11c0.6,0,1,0.4,1,1s-0.4,1-1,1s-1-0.4-1-1S57.4,11,58,11z M52,5c0.6,0,1,0.4,1,1
		s-0.4,1-1,1s-1-0.4-1-1S51.4,5,52,5z M30,4h4v4h-4V4z M12,7c-0.6,0-1-0.4-1-1s0.4-1,1-1s1,0.4,1,1S12.6,7,12,7z M6,11
		c0.6,0,1,0.4,1,1s-0.4,1-1,1s-1-0.4-1-1S5.4,11,6,11z M4,30h4v4H4V30z M6,53c-0.6,0-1-0.4-1-1s0.4-1,1-1s1,0.4,1,1S6.6,53,6,53z
		 M12,59c-0.6,0-1-0.4-1-1s0.4-1,1-1s1,0.4,1,1S12.6,59,12,59z M34,60h-4v-4h4V60z M52,57c0.6,0,1,0.4,1,1s-0.4,1-1,1s-1-0.4-1-1
		S51.4,57,52,57z M36,56.7V55c0-0.6-0.4-1-1-1h-6c-0.6,0-1,0.4-1,1v1.7C17.3,55,9,46.7,7.3,36H9c0.6,0,1-0.4,1-1v-6c0-0.6-0.4-1-1-1
		H7.3C9,17.3,17.3,9,28,7.3V9c0,0.6,0.4,1,1,1h6c0.6,0,1-0.4,1-1V7.3C46.5,9,55,17.5,56.7,28H55c-0.6,0-1,0.4-1,1v6c0,0.6,0.4,1,1,1
		h1.7C55,46.5,46.5,55,36,56.7z M58,53c-0.6,0-1-0.4-1-1s0.4-1,1-1s1,0.4,1,1S58.6,53,58,53z M60,34h-4v-4h4V34z"/>
	<rect x="21" y="34" width="2" height="2"/>
	<rect x="41" y="34" width="2" height="2"/>
	<rect x="25" y="37" width="2" height="2"/>
	<rect x="37" y="37" width="2" height="2"/>
	<rect x="31" y="22" width="2" height="2"/>
	<rect x="27" y="22" width="2" height="2"/>
	<rect x="35" y="22" width="2" height="2"/>
	<path d="M47.9,22.6c0,0,0-0.1-0.1-0.1c0,0,0-0.1-0.1-0.1c0,0-0.1-0.1-0.1-0.1c0,0-0.1,0-0.1-0.1c0,0-0.1-0.1-0.1-0.1l-15-9
		c-0.3-0.2-0.7-0.2-1,0l-15,9c0,0-0.1,0.1-0.1,0.1c0,0-0.1,0-0.1,0.1c0,0-0.1,0.1-0.1,0.1c0,0,0,0.1-0.1,0.1c0,0,0,0.1-0.1,0.1
		c0,0,0,0.1,0,0.1c0,0.1,0,0.2,0,0.3v18c0,0.4,0.2,0.7,0.5,0.9l15,9c0,0,0,0,0,0c0,0,0,0,0,0c0.1,0,0.1,0,0.2,0.1c0,0,0,0,0.1,0
		c0.1,0,0.2,0,0.3,0c0.1,0,0.2,0,0.3,0c0,0,0,0,0.1,0c0.1,0,0.1,0,0.2-0.1c0,0,0,0,0,0c0,0,0,0,0,0l15-9c0.3-0.2,0.5-0.5,0.5-0.9V23
		C48,22.9,48,22.8,47.9,22.6C48,22.7,47.9,22.7,47.9,22.6z M32,15.2L45.1,23L32,30.8L18.9,23L32,15.2z M18,24.8l13,7.8v15.7l-13-7.8
		V24.8z M46,40.4l-13,7.8V32.6l13-7.8V40.4z"/>
</g>
</svg>
