<?xml version="1.0" encoding="utf-8"?>
<!-- Generator: Adobe Illustrator 25.2.3, SVG Export Plug-In . SVG Version: 6.00 Build 0)  -->
<svg version="1.1" id="Capa_1" xmlns="http://www.w3.org/2000/svg" xmlns:xlink="http://www.w3.org/1999/xlink" x="0px" y="0px"
	 viewBox="0 0 64 80" style="enable-background:new 0 0 64 80;" xml:space="preserve">
<g>
	<path d="M14.2,27l9-2c0.3-0.1,0.6-0.3,0.7-0.7l2-6c0.1-0.4,0-0.7-0.2-1l-3-3c-0.3-0.3-0.6-0.4-1-0.2l-6,2c-0.3,0.1-0.6,0.4-0.7,0.7
		l-2,9c0,0.1,0,0.1-0.1,0.2l0,0c0,0.1,0,0.2,0.1,0.3v0.1c0,0.1,0.1,0.2,0.2,0.3c0.1,0.1,0.2,0.2,0.3,0.2C13.7,27,13.9,27,14,27H14.2
		z M21.7,16.2l2.1,2.1l-1.6,4.9l-5.1,1.1l2.6-2.6c0.4-0.4,0.4-1,0-1.4s-1-0.4-1.4,0l-2.6,2.6l1.1-5.1L21.7,16.2z M23.3,13.7
		c-0.4-0.4-0.4-1,0-1.4s1-0.4,1.4,0l3,3c0.4,0.4,0.4,1,0,1.4c0,0,0,0,0,0c-0.4,0.4-1,0.4-1.4,0c0,0,0,0,0,0L23.3,13.7z M53,21H33
		c0-0.2,0-0.3,0-0.5C33,13.6,27.4,8,20.5,8S8,13.6,8,20.5c0,5.2,3.2,9.8,8,11.7V47c0,1.7,1.3,3,3,3h12v5h-2c-0.6,0-1,0.4-1,1
		s0.4,1,1,1h14c0.6,0,1-0.4,1-1s-0.4-1-1-1h-2v-5h12c1.7,0,3-1.3,3-3V24C56,22.3,54.7,21,53,21z M35,36h5v2h-8V27h2v8
		C34,35.6,34.4,36,35,36z M10,20.5C10,14.7,14.7,10,20.5,10S31,14.7,31,20.5S26.3,31,20.5,31c-1.1,0-2.1-0.2-3.1-0.5l0,0
		C13,29.2,10,25.1,10,20.5z M20.5,33c3.7,0,7.1-1.6,9.5-4.4V39c0,0.6,0.4,1,1,1h10c0.6,0,1-0.4,1-1v-4c0-0.6-0.4-1-1-1h-5v-8
		c0-0.6-0.4-1-1-1h-2.8c0.3-0.6,0.5-1.3,0.6-2H53c0.6,0,1,0.4,1,1v18H18v-9.2C18.8,32.9,19.7,33,20.5,33z M39,55h-6v-5h6V55z M54,47
		c0,0.6-0.4,1-1,1H19c-0.3,0-0.5-0.1-0.7-0.3C18.1,47.5,18,47.3,18,47v-3h36V47z M34,46c0-0.6,0.4-1,1-1h2c0.6,0,1,0.4,1,1
		s-0.4,1-1,1h-2C34.4,47,34,46.6,34,46z M46,60c0,0.6-0.4,1-1,1H27c-0.6,0-1-0.4-1-1s0.4-1,1-1h18C45.6,59,46,59.4,46,60z M24,60
		c0,0.6-0.4,1-1,1h-2c-0.6,0-1-0.4-1-1s0.4-1,1-1h2C23.6,59,24,59.4,24,60z"/>
</g>
</svg>
