<?xml version="1.0" encoding="utf-8"?>
<!-- Generator: Adobe Illustrator 25.2.3, SVG Export Plug-In . SVG Version: 6.00 Build 0)  -->
<svg version="1.1" id="Capa_1" xmlns="http://www.w3.org/2000/svg" xmlns:xlink="http://www.w3.org/1999/xlink" x="0px" y="0px"
	 viewBox="0 0 512 640" style="enable-background:new 0 0 512 640;" xml:space="preserve">
<g>
	<g>
		<path d="M416,382H182c-0.8,0-1.6-0.3-2.1-0.9l-86-86c-0.6-0.6-0.9-1.3-0.9-2.1V137c0-1.2,0.7-2.3,1.9-2.8c1.1-0.5,2.4-0.2,3.3,0.6
			l56.6,56.6l38.7,18.9l-18.4-37.6c-0.4-0.1-0.8-0.4-1.2-0.7l-48-48c-0.9-0.9-1.1-2.1-0.7-3.3s1.6-1.9,2.8-1.9h288c1.7,0,3,1.3,3,3
			v257C419,380.7,417.7,382,416,382z M183.3,376H413V125H135.3l42,42c1,0.1,2,0.7,2.4,1.7l23,47c0.6,1.2,0.3,2.5-0.6,3.4
			c-0.9,0.9-2.3,1.1-3.4,0.6L152.4,197h-0.3c-1.6,0-2.9-1.2-3-2.7l-50-50v147.5L183.3,376z"/>
	</g>
	<g>
		<path d="M239.1,439c0,0-0.1,0-0.1,0l-188-8c-1.6-0.1-2.8-1.3-2.9-2.9l-9-189c-0.1-1.2,0.6-2.4,1.8-2.9c1.1-0.5,2.5-0.3,3.3,0.6
			L241,433.7c0.7,0.5,1.1,1.4,1.1,2.3C242.1,437.7,240.7,439,239.1,439C239.1,439,239.1,439,239.1,439z M53.9,425.1l177.6,7.6
			L45.4,246.6L53.9,425.1z"/>
	</g>
	<g>
		<path d="M156.1,395c0,0-0.1,0-0.1,0l-66-3c-1.6-0.1-2.8-1.3-2.9-2.9l-3-66c-0.1-1.2,0.7-2.4,1.8-2.9c1.1-0.5,2.5-0.3,3.3,0.6
			l68.8,68.8c0.7,0.5,1.1,1.4,1.1,2.3C159.1,393.7,157.7,395,156.1,395C156.1,395,156.1,395,156.1,395z M92.9,386.1l55.5,2.5
			l-58.1-58.1L92.9,386.1z"/>
	</g>
	<g>
		<path d="M486,420h-54c-1.7,0-3-1.3-3-3V201c0-1.7,1.3-3,3-3h54c1.7,0,3,1.3,3,3v216C489,418.7,487.7,420,486,420z M435,414h48V204
			h-48V414z"/>
	</g>
	<g>
		<path d="M486,222h-33c-1.7,0-3-1.3-3-3s1.3-3,3-3h33c1.7,0,3,1.3,3,3S487.7,222,486,222z"/>
	</g>
	<g>
		<path d="M486,240h-23c-1.7,0-3-1.3-3-3s1.3-3,3-3h23c1.7,0,3,1.3,3,3S487.7,240,486,240z"/>
	</g>
	<g>
		<path d="M486,258h-33c-1.7,0-3-1.3-3-3s1.3-3,3-3h33c1.7,0,3,1.3,3,3C489,256.7,487.7,258,486,258z"/>
	</g>
	<g>
		<path d="M486,275h-23c-1.7,0-3-1.3-3-3s1.3-3,3-3h23c1.7,0,3,1.3,3,3S487.7,275,486,275z"/>
	</g>
	<g>
		<path d="M486,293h-33c-1.7,0-3-1.3-3-3s1.3-3,3-3h33c1.7,0,3,1.3,3,3S487.7,293,486,293z"/>
	</g>
	<g>
		<path d="M486,311h-23c-1.7,0-3-1.3-3-3s1.3-3,3-3h23c1.7,0,3,1.3,3,3S487.7,311,486,311z"/>
	</g>
	<g>
		<path d="M486,329h-33c-1.7,0-3-1.3-3-3s1.3-3,3-3h33c1.7,0,3,1.3,3,3S487.7,329,486,329z"/>
	</g>
	<g>
		<path d="M486,347h-23c-1.7,0-3-1.3-3-3s1.3-3,3-3h23c1.7,0,3,1.3,3,3S487.7,347,486,347z"/>
	</g>
	<g>
		<path d="M486,365h-33c-1.7,0-3-1.3-3-3s1.3-3,3-3h33c1.7,0,3,1.3,3,3S487.7,365,486,365z"/>
	</g>
	<g>
		<path d="M486,382h-23c-1.7,0-3-1.3-3-3s1.3-3,3-3h23c1.7,0,3,1.3,3,3S487.7,382,486,382z"/>
	</g>
	<g>
		<path d="M486,400h-33c-1.7,0-3-1.3-3-3s1.3-3,3-3h33c1.7,0,3,1.3,3,3S487.7,400,486,400z"/>
	</g>
	<g>
		<path d="M425,455H154c-1.7,0-3-1.3-3-3s1.3-3,3-3h271c1.7,0,3,1.3,3,3S426.7,455,425,455z"/>
	</g>
	<g>
		<path d="M266,472H79c-1.7,0-3-1.3-3-3s1.3-3,3-3h187c1.7,0,3,1.3,3,3S267.7,472,266,472z"/>
	</g>
	<g>
		<path d="M60,472H36c-1.7,0-3-1.3-3-3s1.3-3,3-3h24c1.7,0,3,1.3,3,3S61.7,472,60,472z"/>
	</g>
	<g>
		<path d="M436,471h-89c-1.7,0-3-1.3-3-3s1.3-3,3-3h89c1.7,0,3,1.3,3,3S437.7,471,436,471z"/>
	</g>
	<g>
		<path d="M200,220c-0.4,0-0.9-0.1-1.3-0.3l-47-23c-0.3-0.1-0.6-0.3-0.8-0.6l-106-106c-1.2-1.2-1.2-3.1,0-4.2l24-24
			c1.2-1.2,3.1-1.2,4.2,0l106,106c0.2,0.2,0.4,0.5,0.6,0.8l22.9,46.7c0.3,0.5,0.5,1,0.5,1.6C203.1,218.7,201.7,220,200,220z
			 M154.8,191.5l38.7,18.9l-18.9-38.7L71.1,68.2L51.3,88L154.8,191.5z"/>
	</g>
	<g>
		<path d="M47,91c-0.7,0-1.4-0.2-2-0.7l-8-7c-0.6-0.5-1-1.3-1-2.2c0-0.8,0.3-1.6,0.9-2.2l24-24c1.1-1.1,2.9-1.2,4.1-0.1l8,7
			c0.6,0.5,1,1.3,1,2.2c0,0.8-0.3,1.6-0.9,2.2l-24,24C48.6,90.7,47.8,91,47,91z M43.4,80.9l3.5,3l19.7-19.7l-3.5-3L43.4,80.9z"/>
	</g>
	<g>
		<path d="M39,84C39,84,39,84,39,84c-0.9,0-1.7-0.4-2.2-1l-9-9.9c-6.1-6.2-6.1-17,0.1-23.2l5-5c2.9-2.9,7.2-4.6,11.6-4.6
			s8.7,1.7,11.6,4.6c0,0,0.1,0.1,0.1,0.1l9,10c1.1,1.2,1,3-0.1,4.1l-24,24C40.6,83.7,39.8,84,39,84z M44.5,46.3
			c-2.9,0-5.6,1-7.4,2.9l-5,5c-3.9,3.9-3.9,10.9,0,14.8c0,0,0.1,0.1,0.1,0.1l6.9,7.6l19.8-19.8l-7-7.8
			C50.1,47.3,47.4,46.3,44.5,46.3z"/>
	</g>
	<g>
		<path d="M153.1,197c-0.7,0-1.5-0.3-2.1-0.8c-1.2-1.1-1.2-3-0.1-4.2l23-24c1.1-1.2,3-1.2,4.2-0.1c1.2,1.1,1.2,3,0.1,4.2l-23,24
			C154.6,196.7,153.8,197,153.1,197z"/>
	</g>
	<g>
		<path d="M168.1,181c-0.8,0-1.5-0.3-2.1-0.9l-105-105c-1.2-1.2-1.2-3.1,0-4.2c1.2-1.2,3.1-1.2,4.2,0l105,105c1.2,1.2,1.2,3.1,0,4.2
			C169.6,180.7,168.8,181,168.1,181z"/>
	</g>
	<g>
		<path d="M161.1,189c-0.8,0-1.5-0.3-2.1-0.9l-106-106c-1.2-1.2-1.2-3.1,0-4.2c1.2-1.2,3.1-1.2,4.2,0l106,106c1.2,1.2,1.2,3.1,0,4.2
			C162.6,188.7,161.8,189,161.1,189z"/>
	</g>
	<g>
		<path d="M434,171c-1.7,0-3-1.3-3-3v-61H295c-1.7,0-3-1.3-3-3s1.3-3,3-3h139c1.7,0,3,1.3,3,3v64C437,169.7,435.7,171,434,171z"/>
	</g>
	<g>
		<path d="M290,317c-18.8,0-36.3-7.3-49.5-20.6C227.3,283,220,265.1,220,246c0-38.6,31.4-70,70-70s70,31.4,70,70
			c0,19.1-7.3,37-20.5,50.4C326.4,309.7,308.8,317,290,317z M290,182c-35.3,0-64,28.7-64,64c0,35.8,28.7,65,64,65s64-29.2,64-65
			C354,210.7,325.3,182,290,182z"/>
	</g>
	<g>
		<path d="M323,288c-38.6,0-70-31.4-70-70c0-13.8,5.1-26.8,9.3-35.3c0.3-0.7,0.9-1.2,1.6-1.5c9.6-3.6,17.6-5.2,26.1-5.2
			c38.6,0,70,31.4,70,70c0,13.6-3.3,26.3-9.4,36.5c-0.3,0.6-0.9,1-1.5,1.3C341.4,286.7,333.3,288,323,288z M267.2,186.4
			c-3.8,7.9-8.2,19.5-8.2,31.6c0,35.3,28.7,64,64,64c9.1,0,16.2-1.1,23-3.4c5.3-9.2,8-20.4,8-32.6c0-35.3-28.7-64-64-64
			C282.7,182,275.6,183.4,267.2,186.4z"/>
	</g>
	<g>
		<path d="M323,288c-9,0-16.2-1.3-24.1-4.2c-1.2-0.4-1.9-1.6-1.9-2.8v-10c0-31.1,18.5-57.3,47.1-66.8c1.2-0.4,2.6,0,3.4,1.1
			c8.1,11.1,12.6,25.6,12.6,40.8c0,13.6-3.3,26.3-9.4,36.5c-0.3,0.6-0.9,1-1.5,1.3C341.4,286.7,333.3,288,323,288z M303,278.9
			c6.4,2.2,12.5,3.1,20,3.1c9.1,0,16.2-1.1,23-3.4c5.3-9.2,8-20.4,8-32.6c0-13.1-3.6-25.5-10.2-35.4C319,219.9,303,243.3,303,271
			V278.9z"/>
	</g>
	<g>
		<path d="M302,245c-17.2,0-34.2-6.3-47.9-17.7c-0.7-0.6-1.1-1.4-1.1-2.3v-7c0-13.8,5.1-26.8,9.3-35.3c0.3-0.7,0.9-1.2,1.6-1.5
			c9.6-3.6,17.6-5.2,26.1-5.2c27.8,0,52.6,16.4,64.7,42.8c0.5,1.1,0.3,2.5-0.6,3.4C339.6,236.7,320.6,245,302,245z M259,223.6
			c12.4,10,27.6,15.4,43,15.4c16.4,0,33.2-7.1,46.4-19.7C337,196.3,314.8,182,290,182c-7.4,0-14.5,1.4-22.8,4.4
			c-3.8,7.9-8.2,19.5-8.2,31.6V223.6z"/>
	</g>
</g>
</svg>
